<?xml version="1.0" standalone="no"?>
<!DOCTYPE svg PUBLIC "-//W3C//DTD SVG 20010904//EN"
 "http://www.w3.org/TR/2001/REC-SVG-20010904/DTD/svg10.dtd">
<svg version="1.0" xmlns="http://www.w3.org/2000/svg"
 width="700.000000pt" height="700.000000pt" viewBox="0 0 700.000000 700.000000"
 preserveAspectRatio="xMidYMid meet">
<metadata>
Created by potrace 1.14, written by Peter Selinger 2001-2017
</metadata>
<g transform="translate(0.000000,700.000000) scale(0.100000,-0.100000)"
fill="#000000" stroke="none">
<path d="M1707 5292 l-1707 -1707 1703 -1703 c936 -936 1707 -1702 1712 -1702
13 0 3405 3392 3405 3405 0 6 -766 776 -1703 1713 l-1702 1702 -1708 -1708z
m2993 -427 l1275 -1275 -1283 -1282 -1282 -1283 -1275 1275 c-701 701 -1275
1279 -1275 1285 0 13 2542 2555 2555 2555 6 0 584 -574 1285 -1275z"/>
</g>
</svg>
